<?xml version="1.0" encoding="utf-8"?>
<!-- Svg Vector Icons : http://www.onlinewebfonts.com/icon -->
<!DOCTYPE svg PUBLIC "-//W3C//DTD SVG 1.1//EN" "http://www.w3.org/Graphics/SVG/1.1/DTD/svg11.dtd">
<svg version="1.1" xmlns="http://www.w3.org/2000/svg" xmlns:xlink="http://www.w3.org/1999/xlink" x="0px" y="0px" viewBox="0 0 256 256" enable-background="new 0 0 256 256" xml:space="preserve">
<metadata> Svg Vector Icons : http://www.onlinewebfonts.com/icon </metadata>
<g><g><path fill="#000000" d="M210.1,246h-35.8c-19.8,0-35.8-16-35.8-35.8v-35.8c0-19.8,16-35.8,35.8-35.8h35.8c19.8,0,35.8,16,35.8,35.8v35.8C246,230,229.9,246,210.1,246z M228.1,174.4c0-9.9-8-17.9-17.9-17.9h-35.8c-9.9,0-17.9,8-17.9,17.9v35.8c0,9.9,8,17.9,17.9,17.9h35.8c9.9,0,17.9-8,17.9-17.9V174.4z M210.1,117.5h-35.8c-19.8,0-35.8-16-35.8-35.8V45.8c0-19.8,16-35.8,35.8-35.8h35.8c19.8,0,35.8,16,35.8,35.8v35.8C246,101.4,229.9,117.5,210.1,117.5z M228.1,45.8c0-9.9-8-17.9-17.9-17.9h-35.8c-9.9,0-17.9,8-17.9,17.9v35.8c0,9.9,8,17.9,17.9,17.9h35.8c9.9,0,17.9-8,17.9-17.9V45.8z M81.6,246H45.8C26,246,10,230,10,210.2v-35.8c0-19.8,16-35.8,35.8-35.8h35.8c19.8,0,35.8,16,35.8,35.8v35.8C117.4,230,101.4,246,81.6,246z M99.6,174.4c0-9.9-8-17.9-17.9-17.9H45.8c-9.9,0-17.9,8-17.9,17.9v35.8c0,9.9,8,17.9,17.9,17.9h35.8c9.9,0,17.9-8,17.9-17.9V174.4L99.6,174.4z M81.6,117.5H45.8C26,117.5,10,101.4,10,81.6V45.8C10,26,26,10,45.8,10h35.8c19.8,0,35.8,16,35.8,35.8v35.8C117.4,101.4,101.4,117.5,81.6,117.5z M99.6,45.8c0-9.9-8-17.9-17.9-17.9H45.8c-9.9,0-17.9,8-17.9,17.9v35.8c0,9.9,8,17.9,17.9,17.9h35.8c9.9,0,17.9-8,17.9-17.9V45.8L99.6,45.8z"/></g></g>
</svg>