<?xml version="1.0" encoding="utf-8"?>
<!-- Svg Vector Icons : http://www.onlinewebfonts.com/icon -->
<!DOCTYPE svg PUBLIC "-//W3C//DTD SVG 1.1//EN" "http://www.w3.org/Graphics/SVG/1.1/DTD/svg11.dtd">
<svg version="1.1" xmlns="http://www.w3.org/2000/svg" xmlns:xlink="http://www.w3.org/1999/xlink" x="0px" y="0px" viewBox="0 0 256 256" enable-background="new 0 0 256 256" xml:space="preserve">
<metadata> Svg Vector Icons : http://www.onlinewebfonts.com/icon </metadata>
<g><g><path fill="#000000" d="M163.5,93.5V62l-0.5-1.2c-4.4-11.4-29.4-54.8-51.5-50.6c-17,3.2-19,29.3-19,48.7v34.5c-7.9,4-13.3,12.3-13.3,21.7v106.4c0,13.4,10.9,24.4,24.4,24.4h48.8c13.4,0,24.4-10.9,24.4-24.4V115.2C176.8,105.7,171.3,97.6,163.5,93.5z M103.6,104.1h48.8c5.3,0,9.8,3.8,10.9,8.9H92.7C93.8,107.9,98.2,104.1,103.6,104.1z M113.9,23.4c8.4-1.6,28.9,23.6,36.2,41.2v26.3h-44.4V59C105.8,32.1,110.9,23.9,113.9,23.4z M163.5,221.6c0,6.1-5,11.1-11.1,11.1h-48.8c-6.1,0-11.1-5-11.1-11.1v-99.7h70.9V221.6L163.5,221.6z"/></g></g>
</svg>