<?xml version="1.0" encoding="utf-8"?>
<!-- Svg Vector Icons : http://www.onlinewebfonts.com/icon -->
<!DOCTYPE svg PUBLIC "-//W3C//DTD SVG 1.1//EN" "http://www.w3.org/Graphics/SVG/1.1/DTD/svg11.dtd">
<svg version="1.1" xmlns="http://www.w3.org/2000/svg" xmlns:xlink="http://www.w3.org/1999/xlink" x="0px" y="0px" viewBox="0 0 256 256" enable-background="new 0 0 256 256" xml:space="preserve">
<metadata> Svg Vector Icons : http://www.onlinewebfonts.com/icon </metadata>
<g><g><path fill="#000000" d="M105.1,190.6c0,3.1-2.5,5.5-5.5,5.5h-21c-3.1,0-5.5-2.5-5.5-5.5c0-3.1,2.5-5.5,5.5-5.5h21C102.7,185.1,105.1,187.6,105.1,190.6z M140.7,85.9h21c3.1,0,5.5-2.5,5.5-5.5s-2.5-5.5-5.5-5.5h-21c-3.1,0-5.5,2.5-5.5,5.5C135.1,83.4,137.6,85.9,140.7,85.9z M140.7,109.3h21c3.1,0,5.5-2.5,5.5-5.5c0-3.1-2.5-5.5-5.5-5.5h-21c-3.1,0-5.5,2.5-5.5,5.5C135.1,106.8,137.6,109.3,140.7,109.3z M116.6,121.5h-38c-3.1,0-5.5,2.5-5.5,5.5c0,3.1,2.5,5.5,5.5,5.5h38c3.1,0,5.5-2.5,5.5-5.5C122.1,123.9,119.7,121.5,116.6,121.5z M116.2,161.7H78.6c-3.1,0-5.5,2.5-5.5,5.5c0,3.1,2.5,5.5,5.5,5.5h37.7c3.1,0,5.5-2.5,5.5-5.5C121.8,164.2,119.3,161.7,116.2,161.7z M216.2,170.3v36.2c0,21.8-17.7,39.6-39.6,39.6c-10.3,0-19.7-4-26.8-10.5H45.3c-3.1,0-5.5-2.5-5.5-5.5V15.5c0-3.1,2.5-5.5,5.5-5.5h111.6c1.4,0,2.9,0.5,3.9,1.6l0,0l0,0l0,0l0,0c0,0,0,0,0,0l38,38l0,0l0,0l0,0l0,0c0.8,0.8,1.3,1.8,1.5,2.8l0,0v0l0,0c0,0,0,0,0,0l0,0c0.1,0.4,0.1,0.7,0.1,1.1v109.6c3.8,0.5,7.5,1,11.1,1.7C214.3,165.3,216.2,167.6,216.2,170.3z M162.5,48h19.1l-19.1-19.1V48z M137.1,206.4v-36.1c0-2.7,1.9-5,4.6-5.5c11.3-2,23.1-3.1,35-3.1c4.3,0,8.5,0.1,12.8,0.4v-103h-32.5c-3.1,0-5.5-2.5-5.5-5.5V21.1H50.9v203.3h90.6C138.7,219,137.1,212.9,137.1,206.4z M205.1,174.9c-9.3-1.4-18.8-2.1-28.5-2.1c-9.6,0-19.2,0.7-28.5,2.1v31.5c0,15.7,12.8,28.5,28.5,28.5c15.7,0,28.5-12.8,28.5-28.5V174.9z M171.1,188.7v9.6h-9.6c-3.1,0-5.5,2.5-5.5,5.5c0,3.1,2.5,5.5,5.5,5.5h9.6v9.6c0,3.1,2.5,5.5,5.5,5.5c3.1,0,5.5-2.5,5.5-5.5v-9.6h9.6c3.1,0,5.5-2.5,5.5-5.5c0-3.1-2.5-5.5-5.5-5.5h-9.6v-9.6c0-3.1-2.5-5.5-5.5-5.5C173.6,183.2,171.1,185.6,171.1,188.7z M161.7,132.6c3.1,0,5.5-2.5,5.5-5.5c0-3.1-2.5-5.5-5.5-5.5h-21c-3.1,0-5.5,2.5-5.5,5.5c0,3.1,2.5,5.5,5.5,5.5H161.7z M116.6,98.2h-38c-3.1,0-5.5,2.5-5.5,5.5s2.5,5.5,5.5,5.5h38c3.1,0,5.5-2.5,5.5-5.5S119.7,98.2,116.6,98.2z M116.6,74.8h-38c-3.1,0-5.5,2.5-5.5,5.5c0,3.1,2.5,5.5,5.5,5.5h38c3.1,0,5.5-2.5,5.5-5.5C122.1,77.3,119.7,74.8,116.6,74.8z"/><g></g><g></g><g></g><g></g><g></g><g></g><g></g><g></g><g></g><g></g><g></g><g></g><g></g><g></g><g></g></g></g>
</svg>