<?xml version="1.0" encoding="utf-8"?>
<!-- Svg Vector Icons : http://www.onlinewebfonts.com/icon -->
<!DOCTYPE svg PUBLIC "-//W3C//DTD SVG 1.1//EN" "http://www.w3.org/Graphics/SVG/1.1/DTD/svg11.dtd">
<svg version="1.1" xmlns="http://www.w3.org/2000/svg" xmlns:xlink="http://www.w3.org/1999/xlink" x="0px" y="0px" viewBox="0 0 256 256" enable-background="new 0 0 256 256" xml:space="preserve">
<metadata> Svg Vector Icons : http://www.onlinewebfonts.com/icon </metadata>
<g><g><path fill="#000000" d="M230.7,100.1C240,91.6,246,79.6,246,66.2c0-25.8-21.6-46.7-48.2-46.7c-16.1,0-30.3,7.7-39.1,19.5c-7.3-2-14.9-3.3-22.7-3.9l0,0v-8c4.8-0.4,8-1.9,8-7.6c0-8.6-7.2-15.6-16.1-15.6c-8.9,0-16.1,7-16.1,15.6c0,5.7,3.2,7.3,8,7.6v8.1c-9,0.9-17.7,3-26,5.6c-1,0.3-1.9,0.6-2.9,0.9c2.2-0.8,4.4-1.5,6.6-2.2c-8.7-12.1-23.1-20-39.5-20C31.6,19.5,10,40.4,10,66.2c0,13.4,6,25.4,15.4,34c-6,13.1-9.3,27.7-9.3,43c0,26.1,9.5,50.1,25.4,68.8l-25.4,24.5l16.1,15.6l25.5-24.6c19.2,15,43.7,24.1,70.3,24.1s51.1-9,70.3-24.1l25.5,24.6l16.1-15.6L214.4,212c15.9-18.7,25.4-42.7,25.4-68.8C239.8,127.9,236.6,113.3,230.7,100.1L230.7,100.1z M58.5,35c9.3,0,17.7,4,23.5,10.2c-20,8.7-36.9,22.7-48.6,40.4c-4.4-5.3-7.1-12-7.1-19.4C26.4,49,40.8,35,58.5,35L58.5,35z M128,236.7c-53,0-96-41.7-96-93c0-41.5,28.1-75.9,66.8-87.9c9.2-2.8,19-5.1,29.2-5.1c53,0,96,41.6,96,93C224,195.1,181,236.7,128,236.7L128,236.7z M222.6,85.4c-11.6-17.7-28.3-32-48.1-40.8c5.8-5.8,13.9-9.5,23-9.5c17.8,0,32.1,13.9,32.1,31.1C229.6,73.5,227,80.1,222.6,85.4L222.6,85.4z M168.3,143.4H128V89.3c0,0,0.8-7.8-8-7.8c-8.8,0-8,7.8-8,7.8V159h56.3c0,0,8,0.5,8-7.8C176.3,142.9,168.3,143.4,168.3,143.4L168.3,143.4z"/></g></g>
</svg>