<?xml version="1.0" encoding="utf-8"?>
<!-- Svg Vector Icons : http://www.onlinewebfonts.com/icon -->
<!DOCTYPE svg PUBLIC "-//W3C//DTD SVG 1.1//EN" "http://www.w3.org/Graphics/SVG/1.1/DTD/svg11.dtd">
<svg version="1.1" xmlns="http://www.w3.org/2000/svg" xmlns:xlink="http://www.w3.org/1999/xlink" x="0px" y="0px" viewBox="0 0 256 256" enable-background="new 0 0 256 256" xml:space="preserve">
<metadata> Svg Vector Icons : http://www.onlinewebfonts.com/icon </metadata>
<g><g><g><path fill="#000000" d="M116.3,10.7c-12.1,3.1-26,14.5-31,25.7c-3,6.4-5,15.2-5,21.9v4.1L67,62.9c-11.6,0.3-13.5,0.7-15.5,2.7c-2.1,2.1-2.8,8-9.4,85c-4,45.5-7.2,84.5-7.2,86.7c0,2.6,0.8,4.6,2.5,6.3l2.5,2.4h87.8h87.9l2.5-2.8l2.7-2.8l-7.4-85.6c-4-46.9-7.8-86.5-8.5-87.8c-1.9-3.5-5.6-4.4-18.3-4.4h-11.5v-4.2c0-6.8-3.1-18.8-6.2-24.5c-4.2-7.6-13.4-16-22.1-20.1c-6-2.8-8.9-3.4-16.8-3.8C124.9,9.8,118.7,10.2,116.3,10.7z M140.1,29.3c10.3,4.5,17.5,15.6,17.5,27v6.4h-29.8H98v-6C98,34.6,119.9,20.3,140.1,29.3z M80.5,91.5c0.3,10.2,0.6,11.4,3,13.3c3,2.4,7.5,2.7,10.3,0.6c3-2.2,4.2-6.8,4.2-16.2v-8.7h29.8h29.8v9.4c0,10.7,1.8,15.6,6.1,16.7c8.2,2.1,11.6-2.9,11.6-16.7v-9.4h7.5h7.5l5.9,69.3c3.2,38.2,6.2,71.7,6.4,74.6l0.7,5.3h-75.3c-61.2,0-75.2-0.2-75.2-1.4c0-0.8,2.8-33.4,6.1-72.3c3.3-39,6.1-71.9,6.1-73.1c0-2,0.8-2.2,7.6-2.2h7.6L80.5,91.5z"/><path fill="#000000" d="M125.6,118.9c0,5.3,0,5.3-4.1,6.1c-5.6,0.9-11.8,5.2-14,9.8c-2.3,5-2.3,14.3,0.1,19.2c2.1,4.5,8.9,9.3,18.2,12.7c8.8,3.2,11.9,6.3,11.9,11.9c0,6.1-2.9,8.8-9.3,8.8c-6.1,0-10.1-3-11-8.3l-0.8-3.9H110c-7.6,0-8.4,0.9-6.5,7.5c2.1,8.1,11,15.6,18.6,15.7c2.1,0,2.4,0.6,2.4,5c0,5,0,5,3.9,5s3.9,0,3.9-4.9c0-4.8,0.1-4.9,4.2-5.5c11.6-1.9,18.8-13.3,15.7-24.9c-1.9-7-7-11.7-17.1-16c-11.5-5-14.9-8-14.9-13.3c0-5.3,3.1-8.4,8.6-8.4c5.1,0,9.1,3.5,9.1,8.1c0,3,0.1,3,7.2,3h7.2v-3.9c0-2.2-0.8-5.4-1.5-7.1c-2.4-4.6-8.9-9.8-13.4-10.7c-3.8-0.7-3.9-0.8-3.9-6.1v-5.4h-3.9h-3.9L125.6,118.9L125.6,118.9z"/></g></g></g>
</svg>