<?xml version="1.0" encoding="utf-8"?>
<!-- Svg Vector Icons : http://www.onlinewebfonts.com/icon -->
<!DOCTYPE svg PUBLIC "-//W3C//DTD SVG 1.1//EN" "http://www.w3.org/Graphics/SVG/1.1/DTD/svg11.dtd">
<svg version="1.1" xmlns="http://www.w3.org/2000/svg" xmlns:xlink="http://www.w3.org/1999/xlink" x="0px" y="0px" viewBox="0 0 256 256" enable-background="new 0 0 256 256" xml:space="preserve">
<metadata> Svg Vector Icons : http://www.onlinewebfonts.com/icon </metadata>
<g><g><path fill="#000000" d="M215.6,208.3h5.5v12h-5.5V208.3z M34.1,208.3h5.5v12h-5.5V208.3z M246,168.5l-37.1-73.2V42.4v-7.9v-6.6H46.3v6.6v7.9V99L10,168.5v39.8h16.2v19.9h21.4v-19.9h160.1v19.9h21.4v-19.9H246V168.5L246,168.5z M238.1,200.3h-9h-21.4H47.5H26.2h-8.3v-31.9h220.1L238.1,200.3L238.1,200.3z M215.6,208.3h5.5v12h-5.5V208.3z M34.1,208.3h5.5v12h-5.5V208.3z M54.3,42.4H201v51.8h-12.3V67.6h-55v26.6h-12.3V67.6h-55v26.6H54.3V42.4L54.3,42.4z M74.4,75.5h39.2v31.9H74.4V75.5z M141.7,75.5h39.2v31.9h-39.2V75.5z M53.7,102.1h12.9v13.3h55v-13.3h12.3v13.3h55v-13.3h14.8l29.6,58.4h-210L53.7,102.1z"/></g></g>
</svg>