<?xml version="1.0" encoding="utf-8"?>
<!-- Svg Vector Icons : http://www.onlinewebfonts.com/icon -->
<!DOCTYPE svg PUBLIC "-//W3C//DTD SVG 1.1//EN" "http://www.w3.org/Graphics/SVG/1.1/DTD/svg11.dtd">
<svg version="1.1" xmlns="http://www.w3.org/2000/svg" xmlns:xlink="http://www.w3.org/1999/xlink" x="0px" y="0px" viewBox="0 0 256 256" enable-background="new 0 0 256 256" xml:space="preserve">
<metadata> Svg Vector Icons : http://www.onlinewebfonts.com/icon </metadata>
<g><g><g><path fill="#000000" d="M30.6,12.2L28,14.5V128v113.5l2.6,2.2l2.6,2.2h94.7h94.7l2.6-2.2l2.6-2.2l0.3-81.2c0.1-44.6,0-82.6-0.3-84.4c-0.5-2.7-5.4-8.1-30.5-33.3c-16.4-16.5-31-30.7-32.4-31.4c-2.1-1.1-12.9-1.3-67.1-1.3H33.2L30.6,12.2z M154,52.4l0.3,27.5l2.2,1.8c2,1.7,4,1.8,29.5,1.8h27.3v73.9v73.9h-85.5H42.4V128V24.9h55.7h55.7L154,52.4z M186.4,52.3l17.2,17.2h-17.5h-17.4V52.3c0-9.5,0.1-17.2,0.3-17.2C169.1,35.1,176.9,42.8,186.4,52.3z"/><path fill="#000000" d="M91.5,48c-2,1.7-2.2,2.6-2.5,11.6l-0.4,9.8h-9.1c-10.3,0-12.5,1-13.6,6.2c-0.5,2.4-0.1,3.4,1.8,5.3c2.3,2.2,3,2.4,11.8,2.4h9.3v9.3c0,8.7,0.2,9.6,2.3,11.6c2.3,2.4,5.9,3,8.8,1.4c2.5-1.4,3.7-5.9,3.7-14.5v-7.8h8.7c4.8,0,9.5-0.3,10.3-0.6c2.5-1,4.2-5.8,3.1-8.9c-1.3-3.8-3.3-4.5-13.2-4.5h-8.9v-7.8c0-8.5-1.2-13.1-3.7-14.5C97.3,45.7,93.8,46,91.5,48z"/><path fill="#000000" d="M63.1,123.9c-1.9,1.9-2.2,2.9-1.8,5.3c1.2,6.2,1.1,6.2,34.5,6.2c16.5,0,30.8-0.3,31.6-0.6c4.2-1.7,4.5-10.3,0.5-12.5c-1-0.6-14-0.9-32.1-0.9H65.5L63.1,123.9z"/><path fill="#000000" d="M165.2,123.6c-1.2,1.3-2,3.3-2,5c0,2.5-0.6,3.2-5.2,5.4c-14.4,7.1-16.3,24.7-3.5,34.4c2.1,1.7,7.3,4.4,11.6,6c10.2,4,13.8,6.7,13.8,10.2c0,3.8-3.7,6.5-9,6.5c-5.2,0-8.9-2.1-10.8-6.1c-3.1-6.4-9-7.3-13-2c-1.5,2-1.6,2.9-0.7,5.9c1.3,5,6.8,11.1,12.3,13.9c4.1,2,4.6,2.6,4.6,5.4c0,4.6,2.7,7.4,7,7.4s7-2.9,7-7.4c0-2.7,0.5-3.3,3.4-4.6c8.8-3.7,13.7-10.4,13.7-19c0.1-10-5.9-16.7-20-22.3c-10.1-4-13.8-6.7-13.8-10.1c0-3.5,2.8-5.8,8-6.4c5.5-0.6,9.8,1.5,11.8,5.9c3.2,6.7,8.9,7.6,13,2.1c1.7-2.2,1.8-3,0.8-6.1c-1.5-4.9-7-11-12.4-13.8c-4.1-2-4.6-2.6-4.6-5.3C177.1,122.3,169.4,119.2,165.2,123.6z"/><path fill="#000000" d="M62.9,150.9c-1.1,1.4-2,3.1-2,3.8c0,2.1,2.6,6.5,4.2,7.2c0.8,0.3,14.9,0.6,31.1,0.6h29.6l2.5-2.1c3.2-2.8,3.3-7.7,0.3-10.1c-1.8-1.5-4.7-1.7-32.9-1.7h-31L62.9,150.9z"/><path fill="#000000" d="M66.8,175.1c-2.2,0.5-5.9,4.4-5.9,6.4c0,2.4,2.1,5.8,4.4,6.8c1.5,0.7,12,1,31.4,1h29.2l2.5-2.1c3.2-2.7,3.3-7.4,0.4-10.3c-1.9-1.9-2.8-2-30.9-2C81.9,174.7,67.9,174.8,66.8,175.1z"/><path fill="#000000" d="M66,202.3c-2.5,1-5,4.5-5,6.8c0,0.9,1.2,3,2.7,4.5l2.7,2.7h29.7c28.6,0,29.7-0.1,32.1-1.9c3.2-2.5,3.4-8,0.5-10.7c-1.9-1.7-3.9-1.8-31.4-2C81.1,201.6,67,201.9,66,202.3z"/></g></g></g>
</svg>