<?xml version="1.0" encoding="utf-8"?>
<!-- Svg Vector Icons : http://www.onlinewebfonts.com/icon -->
<!DOCTYPE svg PUBLIC "-//W3C//DTD SVG 1.1//EN" "http://www.w3.org/Graphics/SVG/1.1/DTD/svg11.dtd">
<svg version="1.1" xmlns="http://www.w3.org/2000/svg" xmlns:xlink="http://www.w3.org/1999/xlink" x="0px" y="0px" viewBox="0 0 256 256" enable-background="new 0 0 256 256" xml:space="preserve">
<metadata> Svg Vector Icons : http://www.onlinewebfonts.com/icon </metadata>
<g><g><g><path fill="#000000" d="M39.6,10.3c-7.9,1.2-13.6,4.1-19.4,9.9c-3.5,3.4-4.6,4.9-6.3,8.4C9.7,36.9,10,28.4,10,128s-0.3,91.2,3.8,99.4c1.7,3.5,2.9,5,6.3,8.5c3.5,3.4,4.9,4.6,8.5,6.3c8.3,4.2-0.2,3.8,99.4,3.8c99.7,0,91.3,0.3,99.5-3.8c3.4-1.8,5-2.9,8.4-6.3c3.4-3.4,4.6-4.9,6.3-8.4c4.2-8.2,3.8,0.2,3.8-99.5c0-99.6,0.3-91.2-3.8-99.4c-1.7-3.5-2.8-5-6.3-8.4c-4.8-4.8-9.2-7.4-15.4-9.1l-3.6-1l-87.3,0C81.5,9.9,41.1,10.1,39.6,10.3z M217.4,20.2c8.4,2.1,14.7,7.8,17.6,15.8c0.9,2.4,1.2,4.4,1.4,8.4l0.2,5.2H128H19.5v-3.6c0-2,0.2-4.6,0.4-5.9c1.9-10.1,9.7-18.1,19.7-20c1-0.2,40.8-0.4,88.4-0.4C204.2,19.5,215,19.6,217.4,20.2z M236.4,137.8l-0.1,79.1l-1.1,2.7c-2.9,7.7-8.3,13.1-15.7,15.6l-3.1,1.1H128H39.6l-3.1-1.1c-6.1-2.1-11.5-6.8-14.2-12.3c-3-6-2.8-0.7-2.8-86.2v-78H128h108.5L236.4,137.8z"/><path fill="#000000" d="M41.3,30.8c-2.8,2.3-2.2,6.6,1.1,7.9c2.2,0.9,4,0.5,5.5-1.3c1.7-2,1.6-4.2-0.4-6.2C45.5,29.2,43.3,29.1,41.3,30.8z"/><path fill="#000000" d="M60.8,31.2c-2.1,2.1-2.2,4.4-0.2,6.3c1.7,1.8,3.2,2.1,5.3,1.2c1.2-0.5,1.9-1.2,2.4-2.4c0.9-2.1,0.6-3.6-1.2-5.3C65.1,29.1,62.8,29.2,60.8,31.2z"/><path fill="#000000" d="M81.3,30.4c-2.6,1.4-3,4.8-0.9,7.2c1.1,1.2,1.7,1.5,3.3,1.5c4.7,0,6.5-6.6,2.3-8.8C84.3,29.5,82.9,29.5,81.3,30.4z"/><path fill="#000000" d="M70.8,80.2c-0.8,0.6-1.5,1.8-1.7,2.5c-0.4,1.8,0.8,4.3,2.4,5c0.7,0.3,3.9,0.5,8.1,0.5c7.1,0,9.2,0.4,10.5,1.9c0.3,0.4,4.4,14.1,9.1,30.5l8.5,29.7l-1.2,0.9c-0.6,0.5-2,1.5-3,2.3c-2.4,1.8-4.5,5.5-4.8,8.7c-0.3,3,0.8,7.1,2.3,8.9l1.1,1.2l-1.7,3.2c-1.4,2.8-1.6,3.6-1.6,6.5c0,5.7,2.7,10.1,7.7,12.8c2.7,1.4,3.2,1.6,6.8,1.6c3.2,0,4.3-0.2,6.2-1.2c6.2-3,9.4-9.8,7.9-16.8L127,177h10.9h10.9l-0.3,1.2c-0.2,0.7-0.4,2.8-0.4,4.5c0,5.5,3.2,10.4,8.5,12.8c3,1.4,8.6,1.4,11.6,0c5.3-2.4,8.7-7.6,8.7-13.1c0-1.7-0.3-3.9-0.6-4.9c-0.6-1.5-0.6-1.9,0-2.7c1.2-1.6,0.8-4.3-0.7-5.8l-1.3-1.3h-31.5c-23,0-31.7-0.1-32.5-0.6c-1.5-0.8-2.1-1.8-2.2-3.4c0-1.5,1.1-2.7,4.2-4.8l1.6-1.1l22.6-0.2c20.3-0.2,22.9-0.4,24.8-1.1c3-1.1,6.2-4.1,7.7-7.2c3.6-7.2,17.2-38.6,17.6-40.8c1.6-8.1-3.6-16.4-11.6-18.9c-2.6-0.8-4.8-0.9-38.9-0.9H100l-0.8-1.6c-1.2-2.4-3.9-5.3-6.5-6.6c-2.3-1.2-2.6-1.2-11.4-1.4L72.3,79L70.8,80.2z M173.7,99.5c2.2,1.5,3.3,3.2,3.6,5.5c0.2,1.8-0.5,3.7-8.5,21.6c-7.5,16.9-8.9,19.7-10.1,20.5c-1.3,0.8-2.6,0.8-21.7,0.7l-20.3-0.1l-7-24.6l-7-24.6h34.7h34.7L173.7,99.5z M115.4,177.8c4.8,2.3,3,9.4-2.3,9.4c-2.4,0-5-2.4-5-4.6c0-2.1,1.1-3.9,2.9-4.8C112.9,176.8,113.4,176.8,115.4,177.8z M164.4,177.6c2.7,1.4,3.7,3.9,2.7,6.5c-0.8,1.9-2.4,3-4.3,3c-3.2,0-5.2-2-5.2-5.2c0-1.9,1.1-3.5,3-4.3C162.4,176.8,162.9,176.8,164.4,177.6z"/></g></g></g>
</svg>