<?xml version="1.0" encoding="utf-8"?>
<!-- Svg Vector Icons : http://www.onlinewebfonts.com/icon -->
<!DOCTYPE svg PUBLIC "-//W3C//DTD SVG 1.1//EN" "http://www.w3.org/Graphics/SVG/1.1/DTD/svg11.dtd">
<svg version="1.1" xmlns="http://www.w3.org/2000/svg" xmlns:xlink="http://www.w3.org/1999/xlink" x="0px" y="0px" viewBox="0 0 256 256" enable-background="new 0 0 256 256" xml:space="preserve">
<metadata> Svg Vector Icons : http://www.onlinewebfonts.com/icon </metadata>
<g><g><g><g><path fill="#000000" d="M240.3,115.4c-6.8-2.5-19.4-3.8-37.5-3.8c-4.7,0-8.5,0.1-10.4,0.2h-0.2l-0.1-0.2l-21.9-31L67.5,80.5l-14.7,31.3H10V146l29.4,9.9l0.2-1.5c1.6-10.6,10.9-18.7,21.6-18.7c11.7,0,21.5,9.5,21.8,21.3l0,1.2l90.9,0.6v-1.3c0-12,9.9-21.8,21.9-21.8c10.7,0,19.7,7.7,21.6,18.2l0.2,1.2l21.7-2.5l0.3-0.7c0.3-0.9,7.4-21.1,6.4-31.2C245.8,119.6,245.6,117.4,240.3,115.4z M168.3,83.2l0.1,0.2l20.4,28.4h-61.6l-0.1-0.3l-5.7-28.2L168.3,83.2L168.3,83.2z M56,111.2l13.1-28.1h40.3l0.1,0.3l5.7,28.4H55.7L56,111.2z M237.5,150l-0.1,0.3l-0.3,0l-17.5,2l-0.1-0.4c-2.6-11-12.4-18.7-23.7-18.7c-12.7,0-23.4,9.9-24.3,22.7l0,0.4h-0.4l-85.6-0.6l0-0.4c-1.2-12.4-11.8-22.1-24.3-22.1c-11.2,0-21.2,7.9-23.7,18.9l-0.1,0.5l-24.9-8.4v-29.9h105.8L112,83.1h6.8l0.1,0.3l6.3,30.9h68.4l0-0.1l0.8,0c1.9,0,4.8-0.1,8.4-0.1c29.4,0,40.3,3.5,40.7,6.8C244.3,129.1,239.1,145.2,237.5,150z"/><path fill="#000000" d="M61.2,141.3c-9.4,0-17.1,7.7-17.1,17.1s7.7,17.1,17.1,17.1c9.4,0,17.1-7.7,17.1-17.1S70.6,141.3,61.2,141.3z M61.2,173c-8.1,0-14.6-6.5-14.6-14.6s6.5-14.6,14.6-14.6c8.1,0,14.6,6.5,14.6,14.6C75.8,166.5,69.3,173,61.2,173z"/><path fill="#000000" d="M195.5,141.3c-9.4,0-17.1,7.7-17.1,17.1s7.7,17.1,17.1,17.1c9.4,0,17.1-7.7,17.1-17.1C212.6,149,204.9,141.3,195.5,141.3z M195.5,173c-8,0-14.6-6.5-14.6-14.6s6.5-14.6,14.6-14.6c8.1,0,14.6,6.5,14.6,14.6C210.1,166.5,203.6,173,195.5,173z"/></g></g><g></g><g></g><g></g><g></g><g></g><g></g><g></g><g></g><g></g><g></g><g></g><g></g><g></g><g></g><g></g></g></g>
</svg>