<?xml version="1.0" encoding="utf-8"?>
<!-- Svg Vector Icons : http://www.onlinewebfonts.com/icon -->
<!DOCTYPE svg PUBLIC "-//W3C//DTD SVG 1.1//EN" "http://www.w3.org/Graphics/SVG/1.1/DTD/svg11.dtd">
<svg version="1.1" xmlns="http://www.w3.org/2000/svg" xmlns:xlink="http://www.w3.org/1999/xlink" x="0px" y="0px" viewBox="0 0 256 256" enable-background="new 0 0 256 256" xml:space="preserve">
<metadata> Svg Vector Icons : http://www.onlinewebfonts.com/icon </metadata>
<g><g><g><path fill="#000000" d="M124.7,33.4c-0.7,0.3-2,0.9-2.8,1.5c-3.8,2.7-110.4,86.1-111.1,86.9c-1.1,1.4-1.1,4.5,0,5.8c1.8,2.3,4.7,2.7,7.2,1c1.6-1.1,108.4-84.3,110-85.8c0.5-0.4,1.4-1.4,2-2.2l1.1-1.4l-0.5,1.6c-0.3,0.9-0.7,2-0.8,2.3c-0.3,0.6,11.9,10.3,52.6,42.1c29.1,22.8,53.9,42.1,55.1,42.9c3,2.1,5.8,2,7.8-0.6c1.2-1.5,1.1-4.4-0.2-5.9c-2.1-2.5-111.6-87.4-113.5-88.1C129.2,32.7,126.7,32.7,124.7,33.4z"/><path fill="#000000" d="M48.5,48.2c-2.3,1-4.3,3.2-4.9,5.6c-0.6,2.1-0.7,31.1-0.1,30.9c0.2-0.1,4.4-3.5,9.4-7.6l9-7.5l-0.1-8.5l-0.1-8.5l-1.4-1.7C57.7,47.6,52.5,46.4,48.5,48.2z"/><path fill="#000000" d="M85,93.4c-22.5,17.1-41.3,31.6-41.8,32.3c-0.7,1.1-0.8,4-0.8,40.3v39l1.1,2.8c2.9,7.5,8.4,12.6,15.8,14.5c2.2,0.6,6.5,0.7,23.4,0.7h20.7v-28c0-18.4,0.2-28.5,0.5-29.7c0.7-2.3,3.8-5.5,6.3-6.3c1.4-0.4,6.5-0.6,17.1-0.6c15,0,15.2,0,17.5,1.1c2.5,1.2,4.4,3.2,5.3,5.8c0.4,1.1,0.5,9.9,0.5,29.5v28h21.6c17.7,0,22.1-0.1,24.3-0.7c7.5-2,13-7,15.8-14.5l1.1-2.8v-39c0-36.2,0-39.2-0.8-40.3c-0.5-0.7-19.3-15.2-41.8-32.3c-39.6-30.2-41-31.1-43-31.1C126,62.3,124.7,63.3,85,93.4z M166,102.3l37.5,28.5v36c0,39.5,0.1,38.1-2.8,41.8c-0.8,1-2.6,2.4-4.1,3.1l-2.7,1.3l-16.5,0.1l-16.5,0.1v-21.9c0-12-0.2-23.4-0.5-25.3c-1-7.6-6.2-14-13.4-16.5c-2.4-0.8-4-0.9-20-0.9c-19,0-19.9,0.1-24.4,2.9c-2.7,1.7-6.2,5.6-7.4,8.4c-1.9,4.1-2.1,7.3-2.1,30.9v22.3l-15.5-0.1L62.1,213l-2.7-1.3c-1.5-0.7-3.3-2.1-4.1-3c-2.9-3.5-2.8-2.3-2.8-41.9v-36L90,102.2c20.6-15.7,37.7-28.6,38-28.5C128.3,73.7,145.4,86.6,166,102.3z"/></g></g></g>
</svg>