<?xml version="1.0" encoding="utf-8"?>
<!-- Svg Vector Icons : http://www.onlinewebfonts.com/icon -->
<!DOCTYPE svg PUBLIC "-//W3C//DTD SVG 1.1//EN" "http://www.w3.org/Graphics/SVG/1.1/DTD/svg11.dtd">
<svg version="1.1" xmlns="http://www.w3.org/2000/svg" xmlns:xlink="http://www.w3.org/1999/xlink" x="0px" y="0px" viewBox="0 0 256 256" enable-background="new 0 0 256 256" xml:space="preserve">
<metadata> Svg Vector Icons : http://www.onlinewebfonts.com/icon </metadata>
<g><g><g><path fill="#000000" d="M41.1,5.7C39.7,5.9,36.7,7,34.6,8c-7,3.4-12.2,9.9-13.8,17.5c-0.6,2.9-0.7,16.4-0.7,99.6v96.3h-3.4c-3.1,0-3.5,0.1-4.7,1.3c-1.8,1.8-2,3.6-1.8,15c0.1,10.6,0.4,11.6,3.7,12.5c1.2,0.4,27.4,0.5,83.6,0.4l81.9-0.1l1.3-1.3l1.3-1.3v-11.8v-11.8l-1.3-1.3c-1.1-1.2-1.8-1.4-4.8-1.6l-3.5-0.2l-0.1-41.4l-0.1-41.4l1.3,0.3c4.5,1.1,9.4,5.6,11.8,10.7l1.5,3.2l0.3,17.5c0.2,16.2,0.3,17.7,1.3,20.6c4.9,14.9,20.3,23.5,35.3,19.7c10.9-2.8,19.4-11.5,21.6-22.3c1.1-5.1,1.1-88.4,0-92.6c-1.6-6.1-1.8-6.4-31.7-36.2l-28.1-28.1l-3.5,3.5l-3.5,3.5l14.1,14.1l14,14v20.4c0,11.2,0.2,21.7,0.5,23.3c1,6.1,2.4,7.9,16.4,22.1l12.9,13v17.7c0,20.4-0.3,23.4-2.3,27.6c-6.9,14.8-28.4,14.7-35.3-0.1c-1.6-3.5-1.6-2.8-1.9-24.7c-0.1-9.9-0.4-13.6-1-15.7c-2.7-9.9-11.1-18.4-20.6-20.9l-3.2-0.9V77.8c0-43.1-0.1-50.8-0.7-53.1c-2.2-8.3-8.1-14.8-16.4-18l-3.3-1.3l-54,0C67.2,5.3,42.6,5.4,41.1,5.7z M152,16.1c3.8,1.5,7.1,4.7,8.8,8.3l1.4,3l0.1,96.7l0.1,96.8H96.1H29.6v-94.4c0-54.1,0.2-95.6,0.4-97.4c1.1-7.6,6.5-13,13.9-14c1.5-0.2,25.8-0.3,54-0.3l51.3,0L152,16.1z M235,95.8c1,2.1,1.1,2.7,1.2,18.3c0.1,9,0,16.2-0.2,16.2s-4.2-3.8-8.9-8.5c-5.8-5.8-8.8-9.2-9.4-10.6c-0.9-2-1-3.1-1-18.5V76.4l8.6,8.6C230.8,90.5,234.4,94.4,235,95.8z M172.1,236.1v5h-76H20v-5v-5h76h76V236.1z"/><path fill="#000000" d="M48.9,25.8c-3.5,1.3-6.9,4.9-8.2,8.4c-1,2.6-1.1,3.2-0.9,30.6l0.1,27.9l1.1,2.2c1.4,2.9,3.9,5.4,7,7l2.5,1.3h45.6h45.6l2.7-1.3c2.9-1.4,5.5-4,7-7c0.8-1.6,0.9-3.8,1-30c0.1-31.8,0.2-31-3.4-35.1c-1.1-1.2-3.1-2.8-4.4-3.5l-2.4-1.3L96.8,25C52.2,24.9,51.4,24.9,48.9,25.8z M139.7,35.1c3.3,1.4,3.2,0.1,3,29.5l-0.1,26.5l-1.3,1.2l-1.3,1.2H96.1H52.3l-1.2-1.2c-0.7-0.7-1.3-1.9-1.5-2.7c-0.1-0.9-0.3-12.6-0.3-26c0-22.3,0.1-24.7,0.9-26.2c0.5-1.2,1.3-1.9,2.5-2.3c1.2-0.4,12.4-0.6,43.5-0.6C131.3,34.4,138.3,34.5,139.7,35.1z"/></g></g></g>
</svg>